<svg width="64" height="64" viewBox="0 0 64 64" fill="none" xmlns="http://www.w3.org/2000/svg">
<path d="M56.616 23.9639C55.942 23.4369 55.218 22.9709 54.463 22.5769L53.538 24.3499C54.184 24.6869 54.806 25.0869 55.384 25.5389L56.616 23.9639Z" fill="#F2F2F9"/>
<path d="M58.103 25.3081L56.66 26.6931C58.813 28.9371 60 31.8871 60 35.0001H62C62 31.3681 60.616 27.9261 58.103 25.3081Z" fill="#F2F2F9"/>
<path d="M16.234 10.445L15.765 8.50098C7.661 10.456 2 17.651 2 26H4C4 18.579 9.031 12.183 16.234 10.445Z" fill="#F2F2F9"/>
<path d="M20 10V8C19.294 8 18.582 8.042 17.884 8.123L18.116 10.109C18.737 10.037 19.371 10 20 10Z" fill="#F2F2F9"/>
<path d="M17.707 34.2931L16.2928 35.7073L29.2929 48.7073L30.7071 47.2931L17.707 34.2931Z" fill="#F2F2F9"/>
<path d="M14.7065 31.2926L13.2923 32.7068L14.7921 34.2065L16.2063 32.7923L14.7065 31.2926Z" fill="#F2F2F9"/>
<path d="M51.705 26.2721C51.778 22.5441 50.358 18.9441 47.707 16.2931C42.584 11.1711 34.387 10.9511 29 15.6331C23.613 10.9501 15.416 11.1711 10.293 16.2931C4.94001 21.6461 4.94001 30.3551 10.293 35.7071L28.293 53.7071C28.488 53.9021 28.744 54.0001 29 54.0001C29.256 54.0001 29.512 53.9021 29.707 53.7071L35.5 47.9141L41.293 53.7071C41.488 53.9021 41.744 54.0001 42 54.0001C42.256 54.0001 42.512 53.9021 42.707 53.7071L54.707 41.7071C58.405 38.0091 58.405 31.9911 54.707 28.2931C53.819 27.4051 52.796 26.7341 51.705 26.2721ZM29 51.5861L11.707 34.2931C7.13401 29.7201 7.13401 22.2801 11.707 17.7071C16.28 13.1351 23.72 13.1351 28.293 17.7071C28.684 18.0981 29.316 18.0981 29.707 17.7071C34.28 13.1351 41.72 13.1351 46.293 17.7071C48.428 19.8431 49.642 22.6971 49.722 25.6851C47.051 25.1951 44.211 25.8451 42.001 27.6531C38.278 24.6091 32.765 24.8221 29.294 28.2931C25.596 31.9911 25.596 38.0091 29.294 41.7071L34.087 46.5001L29 51.5861ZM53.293 40.2931L42 51.5861L30.707 40.2931C27.789 37.3751 27.789 32.6261 30.707 29.7071C32.166 28.2481 34.083 27.5181 36 27.5181C37.917 27.5181 39.833 28.2481 41.293 29.7071C41.684 30.0981 42.316 30.0981 42.707 29.7071C45.626 26.7891 50.374 26.7891 53.293 29.7071C56.211 32.6251 56.211 37.3751 53.293 40.2931Z" fill="#F2F2F9"/>
</svg>
