<svg width="90" height="32" viewBox="0 0 90 32" fill="none" xmlns="http://www.w3.org/2000/svg">
    <path d="M10.5186 16.113L6.77345 13.925L10.5181 11.7012L14.2632 13.9254L10.5186 16.113Z"
        fill="#403F41" />
    <g opacity="0.56">
        <path d="M10.5186 24.6405L6.77345 22.4524L10.5181 20.2287L14.2632 22.4529L10.5186 24.6405Z"
            fill="#403F41" />
    </g>
    <path d="M18.3858 11.2801L14.6406 9.0921L18.3853 6.86832L22.1303 9.09252L18.3858 11.2801Z"
        fill="#403F41" />
    <g opacity="0.56">
        <path d="M18.3859 24.6405L14.6408 22.4524L18.3855 20.2287L22.1305 22.4529L18.3859 24.6405Z"
            fill="#403F41" />
    </g>
    <g opacity="0.56">
        <path d="M10.5392 24.6283L6.7737 22.4529L6.80494 13.9068L10.5392 16.1125L10.5392 24.6283Z"
            fill="#403F41" />
    </g>
    <g opacity="0.56">
        <path d="M18.4063 24.6284L14.6408 22.4531L14.6715 9.07427L18.4063 11.2803L18.4063 24.6284Z"
            fill="#403F41" />
    </g>
    <path
        d="M27.4081 21.7086C26.8904 21.4129 26.4927 21.0008 26.2138 20.4719C25.9356 19.9435 25.7961 19.3176 25.7961 18.5954V13.06C25.7961 12.3609 25.9368 11.7444 26.2182 11.2098C26.5002 10.6752 26.8979 10.26 27.4125 9.96429C27.927 9.66854 28.5279 9.52098 29.2163 9.52098C29.876 9.52098 30.4556 9.65979 30.9558 9.93866C31.456 10.2175 31.8475 10.6152 32.1288 11.1329C32.4102 11.6506 32.5515 12.2696 32.5515 12.9925L32.5596 14.4418H30.2311L30.223 12.8042C30.2343 12.5604 30.1968 12.3497 30.1117 12.1734C30.0261 11.997 29.9116 11.8607 29.7666 11.7638C29.6209 11.6675 29.4496 11.6187 29.2501 11.6187C29.0288 11.6187 28.8437 11.6731 28.6961 11.7813C28.5479 11.8889 28.4329 12.0339 28.3503 12.2159C28.2678 12.3978 28.2265 12.6085 28.2265 12.8468V18.8174C28.2265 19.0619 28.2678 19.2782 28.3503 19.4658C28.4329 19.6534 28.5511 19.7978 28.7049 19.901C28.8581 20.0029 29.04 20.0542 29.2501 20.0542C29.4496 20.0542 29.6196 20.006 29.7622 19.9091C29.9041 19.8128 30.0148 19.6759 30.0948 19.4996C30.1742 19.3239 30.2143 19.1188 30.2143 18.8856V17.2224H32.5515L32.5684 18.6899C32.5565 19.4002 32.4102 20.0154 32.1288 20.5363C31.8475 21.0559 31.4579 21.4554 30.9602 21.7343C30.4625 22.0131 29.8816 22.1526 29.2163 22.1526C28.5279 22.1526 27.9258 22.0044 27.4081 21.7086Z"
        fill="#403F41" />
    <path
        d="M37.0542 20.1138C37.1792 20.04 37.2705 19.9343 37.3274 19.798C37.3837 19.6617 37.4124 19.5023 37.4124 19.3203V15.4649C37.4124 15.2836 37.3837 15.1242 37.3274 14.9879C37.2705 14.8516 37.1823 14.7459 37.0629 14.6727C36.9435 14.5983 36.8009 14.5614 36.6365 14.5614C36.4658 14.5614 36.3251 14.5996 36.2138 14.6765C36.1031 14.7534 36.015 14.8584 35.9493 14.9922C35.8843 15.126 35.8518 15.2836 35.8518 15.4649V19.3203C35.8518 19.5023 35.883 19.6617 35.9456 19.798C36.0081 19.9343 36.095 20.04 36.2057 20.1138C36.3163 20.1882 36.4576 20.2245 36.6277 20.2245C36.7865 20.2245 36.9291 20.1882 37.0542 20.1138ZM35.0245 21.7645C34.5518 21.5281 34.1786 21.183 33.9028 20.7278C33.6271 20.2732 33.4889 19.7242 33.4889 19.0815V15.7132C33.4889 15.0591 33.6258 14.5058 33.8984 14.0537C34.1717 13.6023 34.5468 13.2565 35.0245 13.0177C35.5016 12.7788 36.0393 12.6594 36.6365 12.6594C37.2386 12.6594 37.7751 12.7801 38.244 13.022C38.713 13.2634 39.085 13.6092 39.3614 14.0581C39.6371 14.5077 39.7753 15.0591 39.7753 15.7132V19.0815C39.7753 19.7242 39.6402 20.2732 39.3701 20.7278C39.1 21.183 38.7242 21.5281 38.244 21.7645C37.7638 21.9996 37.228 22.1184 36.6365 22.1184C36.0331 22.1184 35.496 21.9996 35.0245 21.7645Z"
        fill="#403F41" />
    <path
        d="M44.253 20.0156C44.378 19.9386 44.4731 19.8311 44.5387 19.6917C44.6044 19.5522 44.6369 19.3859 44.6369 19.1927V15.6018C44.6369 15.4142 44.6044 15.2523 44.5387 15.116C44.4731 14.9797 44.378 14.874 44.253 14.8002C44.1279 14.7264 43.9885 14.6889 43.8353 14.6889C43.6646 14.6889 43.5208 14.7264 43.4045 14.8002C43.2876 14.874 43.1981 14.9822 43.1356 15.1241C43.0731 15.2667 43.0418 15.4317 43.0418 15.6193V19.184C43.0418 19.3834 43.075 19.5522 43.14 19.6917C43.2056 19.8311 43.2951 19.9386 43.4082 20.0156C43.5227 20.0925 43.6646 20.1306 43.8353 20.1306C43.9885 20.1306 44.1279 20.0925 44.253 20.0156ZM41.6731 21.8069C41.3574 21.5937 41.1129 21.2861 40.9397 20.8853C40.7659 20.4845 40.679 20.0062 40.679 19.4484V15.3717C40.679 14.8146 40.7659 14.335 40.9397 13.9342C41.1129 13.5334 41.3574 13.2252 41.6731 13.0095C41.9883 12.7931 42.3709 12.685 42.8199 12.685C43.1275 12.685 43.3957 12.7418 43.6258 12.8556C43.8566 12.9694 44.0498 13.1189 44.2061 13.3033C44.3624 13.4878 44.4887 13.6973 44.5856 13.9299H44.6281V9.56363H46.9479V21.9901H44.6281V20.9153H44.5856C44.4943 21.1598 44.3711 21.3761 44.2148 21.5637C44.0585 21.7513 43.8634 21.892 43.6302 21.9858C43.397 22.0796 43.1275 22.1264 42.8199 22.1264C42.3709 22.1264 41.9883 22.0202 41.6731 21.8069Z"
        fill="#403F41" />
    <path
        d="M49.3957 21.7512C48.9524 21.5067 48.6067 21.1603 48.3597 20.7107C48.1121 20.2618 47.9889 19.7272 47.9889 19.1075V15.6617C47.9889 15.0589 48.1089 14.5343 48.3509 14.0879C48.5929 13.6415 48.9355 13.2919 49.3789 13.0393C49.8222 12.7861 50.3424 12.6592 50.9395 12.6592C51.5366 12.6592 52.0537 12.7792 52.492 13.0175C52.9297 13.2563 53.2693 13.5977 53.5112 14.041C53.7526 14.485 53.8739 15.0077 53.8739 15.6104V18.0583H49.1313V16.5571H52.7478L51.6898 17.9308V15.2865C51.6898 15.1102 51.6604 14.9608 51.6004 14.8389C51.541 14.7163 51.4597 14.6213 51.3578 14.5525C51.2553 14.485 51.1358 14.4506 50.9995 14.4506C50.8401 14.4506 50.7094 14.4837 50.6069 14.5487C50.505 14.6144 50.428 14.7094 50.3768 14.8345C50.3255 14.9595 50.2999 15.1102 50.2999 15.2865V19.534C50.2999 19.699 50.3268 19.8422 50.3812 19.9648C50.4349 20.0873 50.5162 20.1792 50.6238 20.2418C50.7319 20.3043 50.857 20.3356 50.9995 20.3356C51.1471 20.3356 51.2722 20.303 51.3747 20.2374C51.4766 20.1724 51.5579 20.0829 51.6173 19.9685C51.6773 19.8554 51.7042 19.7215 51.6986 19.5677V18.9875H53.8739V19.3889C53.8683 19.7922 53.7995 20.1617 53.6688 20.4975C53.5375 20.8326 53.3474 21.1215 53.0973 21.3629C52.8472 21.6048 52.5414 21.7912 52.1807 21.9219C51.8193 22.0525 51.4141 22.1182 50.9652 22.1182C50.3624 22.1182 49.8397 21.9956 49.3957 21.7512Z"
        fill="#403F41" />
    <path
        d="M56.8999 21.7428C56.3822 21.4471 55.9845 21.0351 55.7056 20.5061C55.4274 19.9777 55.288 19.3518 55.288 18.6297V13.0942C55.288 12.3951 55.4286 11.7786 55.71 11.244C55.992 10.7094 56.3897 10.2943 56.9043 9.9985C57.4189 9.70275 58.0197 9.55519 58.7082 9.55519C59.3678 9.55519 59.9474 9.694 60.4476 9.97287C60.9479 10.2517 61.3393 10.6494 61.6206 11.1671C61.902 11.6848 62.0433 12.3039 62.0433 13.0267L62.0515 14.476H59.723L59.7148 12.8385C59.7261 12.5946 59.6886 12.3839 59.6035 12.2076C59.5179 12.0312 59.4035 11.8949 59.2584 11.798C59.1127 11.7017 58.9414 11.653 58.7419 11.653C58.5206 11.653 58.3355 11.7074 58.1879 11.8155C58.0398 11.9231 57.9247 12.0681 57.8422 12.2501C57.7596 12.432 57.7184 12.6427 57.7184 12.881V18.8516C57.7184 19.0961 57.7596 19.3124 57.8422 19.5C57.9247 19.6876 58.0429 19.832 58.1967 19.9352C58.3499 20.0371 58.5318 20.0884 58.7419 20.0884C58.9414 20.0884 59.1115 20.0403 59.254 19.9433C59.396 19.847 59.5066 19.7101 59.5867 19.5338C59.6661 19.3581 59.7061 19.153 59.7061 18.9198V17.2566H62.0433L62.0602 18.7241C62.0483 19.4344 61.902 20.0496 61.6206 20.5705C61.3393 21.0901 60.9497 21.4896 60.452 21.7685C59.9543 22.0474 59.3734 22.1868 58.7082 22.1868C58.0197 22.1868 57.4176 22.0386 56.8999 21.7428Z"
        fill="#403F41" />
    <path
        d="M63.6689 12.83H65.9886V22.0245H63.6689V12.83ZM63.9459 11.6489C63.7039 11.4019 63.5833 11.1068 63.5833 10.766C63.5833 10.414 63.7039 10.1176 63.9459 9.87939C64.1873 9.64054 64.4818 9.52112 64.8288 9.52112C65.1752 9.52112 65.4684 9.64054 65.7073 9.87939C65.9455 10.1176 66.0649 10.414 66.0649 10.766C66.0649 11.1068 65.9455 11.4019 65.7073 11.6489C65.4684 11.8965 65.1752 12.0203 64.8288 12.0203C64.4818 12.0203 64.1873 11.8965 63.9459 11.6489Z"
        fill="#403F41" />
    <path
        d="M69.0156 21.5297C68.6011 21.1426 68.3929 20.5405 68.3929 19.7214V14.6555H67.6338V12.8298H68.3929V10.5869H70.7557V12.8298H73.0054V14.6555H70.7557V19.4913C70.7557 19.7758 70.8139 19.9803 70.9308 20.1053C71.0465 20.2304 72.3414 20.2929 72.614 20.2929C72.6709 20.2929 72.7259 20.2917 72.7803 20.2885C72.8347 20.2854 72.8841 20.2842 72.9298 20.2842V22.0412C72.8041 22.0587 71.5661 22.0737 71.4123 22.088C71.2591 22.1024 71.0965 22.1099 70.9264 22.1099C70.0673 22.1099 69.4308 21.9167 69.0156 21.5297Z"
        fill="#403F41" />
    <path
        d="M75.3433 25.0864C75.1957 25.0751 75.0676 25.0576 74.9594 25.0351V23.2437C75.0107 23.2606 75.0676 23.2712 75.1301 23.2737C75.1926 23.2769 75.2608 23.2781 75.3346 23.2781C75.6247 23.2781 75.8523 23.2225 76.0167 23.1118C76.1818 23.0011 76.2956 22.8292 76.3581 22.596L76.4094 22.2889L74.4561 12.8299H76.8702L77.97 21.8882L77.6036 20.0711H77.9957L77.6462 21.8882L78.7547 12.8299H81.1689L79.3006 22.1351C79.153 22.8517 78.9267 23.4257 78.6228 23.8584C78.3183 24.2898 77.9344 24.6056 77.4711 24.805C77.0078 25.0038 76.455 25.1033 75.8123 25.1033C75.6472 25.1033 75.4909 25.0976 75.3433 25.0864Z"
        fill="#403F41" />
    <path
        d="M81.2815 21.7884C81.0126 21.5221 80.8782 21.1938 80.8782 20.8049C80.8782 20.3372 81.0783 19.9539 81.4791 19.6544C81.5916 19.5706 81.7267 19.5118 81.8648 19.4862C82.3957 19.3893 82.8265 19.5325 83.1566 19.9158C83.3573 20.1496 83.4711 20.4554 83.4786 20.763C83.4887 21.1563 83.3624 21.4889 83.0997 21.7597C82.8403 22.0285 82.522 22.1592 82.145 22.1523C81.8248 22.1461 81.5091 22.0135 81.2815 21.7884Z"
        fill="#403F41" />
</svg>
    