<svg width="16" height="16" viewBox="0 0 17 16" fill="none" xmlns="http://www.w3.org/2000/svg">
    <path
        d="M12.5 10.6666C11.9747 10.6666 11.5 10.8733 11.144 11.2046L6.44 8.46665C6.47333 8.31331 6.5 8.15998 6.5 7.99998C6.5 7.83998 6.47333 7.68665 6.44 7.53331L11.14 4.79331C11.5 5.12665 11.9733 5.33331 12.5 5.33331C13.6067 5.33331 14.5 4.43998 14.5 3.33331C14.5 2.22665 13.6067 1.33331 12.5 1.33331C11.3933 1.33331 10.5 2.22665 10.5 3.33331C10.5 3.49331 10.5267 3.64665 10.56 3.79998L5.86 6.53998C5.5 6.20665 5.02667 5.99998 4.5 5.99998C3.39333 5.99998 2.5 6.89331 2.5 7.99998C2.5 9.10665 3.39333 9.99998 4.5 9.99998C5.02667 9.99998 5.5 9.79331 5.86 9.45998L10.5587 12.2053C10.5211 12.3563 10.5014 12.5111 10.5 12.6666C10.5 13.0622 10.6173 13.4489 10.8371 13.7778C11.0568 14.1067 11.3692 14.363 11.7346 14.5144C12.1001 14.6658 12.5022 14.7054 12.8902 14.6282C13.2781 14.551 13.6345 14.3606 13.9142 14.0809C14.1939 13.8012 14.3844 13.4448 14.4616 13.0568C14.5387 12.6689 14.4991 12.2667 14.3478 11.9013C14.1964 11.5358 13.94 11.2235 13.6111 11.0037C13.2822 10.7839 12.8956 10.6666 12.5 10.6666Z"
        fill="white" />
</svg>
    