<svg width="24" height="25" viewBox="0 0 24 25" fill="none" xmlns="http://www.w3.org/2000/svg">
    <path
        d="M6.19625 17.9845C7.04625 17.373 7.94817 16.8894 8.902 16.5337C9.85583 16.1779 10.8885 16 12 16C13.1115 16 14.1442 16.1779 15.098 16.5337C16.0518 16.8894 16.9538 17.373 17.8038 17.9845C18.4641 17.3012 18.9952 16.4942 19.397 15.5635C19.799 14.6327 20 13.6115 20 12.5C20 10.2833 19.2208 8.39583 17.6625 6.8375C16.1042 5.27917 14.2167 4.5 12 4.5C9.78333 4.5 7.89583 5.27917 6.3375 6.8375C4.77917 8.39583 4 10.2833 4 12.5C4 13.6115 4.201 14.6327 4.603 15.5635C5.00483 16.4942 5.53592 17.3012 6.19625 17.9845ZM12.0005 13C11.1578 13 10.4471 12.7108 9.86825 12.1323C9.28942 11.5538 9 10.8432 9 10.0005C9 9.15783 9.28925 8.44708 9.86775 7.86825C10.4462 7.28942 11.1568 7 11.9995 7C12.8422 7 13.5529 7.28925 14.1318 7.86775C14.7106 8.44625 15 9.15683 15 9.9995C15 10.8422 14.7107 11.5529 14.1322 12.1318C13.5538 12.7106 12.8432 13 12.0005 13ZM12 21.5C10.7448 21.5 9.56983 21.2663 8.475 20.799C7.38017 20.3317 6.42758 19.6929 5.61725 18.8828C4.80708 18.0724 4.16833 17.1198 3.701 16.025C3.23367 14.9302 3 13.7552 3 12.5C3 11.2448 3.23367 10.0698 3.701 8.975C4.16833 7.88017 4.80708 6.92758 5.61725 6.11725C6.42758 5.30708 7.38017 4.66833 8.475 4.201C9.56983 3.73367 10.7448 3.5 12 3.5C13.2552 3.5 14.4302 3.73367 15.525 4.201C16.6198 4.66833 17.5724 5.30708 18.3828 6.11725C19.1929 6.92758 19.8317 7.88017 20.299 8.975C20.7663 10.0698 21 11.2448 21 12.5C21 13.7552 20.7663 14.9302 20.299 16.025C19.8317 17.1198 19.1929 18.0724 18.3828 18.8828C17.5724 19.6929 16.6198 20.3317 15.525 20.799C14.4302 21.2663 13.2552 21.5 12 21.5ZM12 20.5C12.9218 20.5 13.8289 20.3388 14.7212 20.0163C15.6134 19.6939 16.3845 19.2526 17.0345 18.6923C16.3845 18.1704 15.6326 17.7579 14.7788 17.4548C13.9249 17.1516 12.9987 17 12 17C11.0013 17 10.0718 17.1484 9.2115 17.4453C8.35133 17.7421 7.60267 18.1578 6.9655 18.6923C7.6155 19.2526 8.38658 19.6939 9.27875 20.0163C10.1711 20.3388 11.0782 20.5 12 20.5ZM12 12C12.5615 12 13.0352 11.8071 13.4212 11.4212C13.8071 11.0352 14 10.5615 14 10C14 9.4385 13.8071 8.96475 13.4212 8.57875C13.0352 8.19292 12.5615 8 12 8C11.4385 8 10.9647 8.19292 10.5788 8.57875C10.1929 8.96475 10 9.4385 10 10C10 10.5615 10.1929 11.0352 10.5788 11.4212C10.9647 11.8071 11.4385 12 12 12Z"
        fill="black" fill-opacity="0.9" />
</svg>
    