<svg width="177" height="261" viewBox="0 0 177 261" fill="none" xmlns="http://www.w3.org/2000/svg">
    <path
        d="M29.6413 104.977C42.6516 104.977 53.1986 94.4102 53.1986 81.3753C53.1986 68.3404 42.6516 57.7735 29.6413 57.7735C16.6309 57.7735 6.08398 68.3404 6.08398 81.3753C6.08398 94.4102 16.6309 104.977 29.6413 104.977Z"
        fill="white" />
    <path
        d="M21.4594 91.9939C21.419 91.9939 21.3786 91.9936 21.338 91.9927H8.67598C7.06934 91.9672 5.53708 91.3101 4.40967 90.163C3.28226 89.0159 2.65006 87.4707 2.64941 85.8609C2.64877 84.251 3.27973 82.7054 4.40622 81.5574C5.53271 80.4093 7.06447 79.751 8.67109 79.7242H21.3438C21.4059 79.723 21.4735 79.723 21.5405 79.7242C23.1568 79.7465 24.6987 80.4082 25.83 81.565C26.9613 82.7218 27.5902 84.2799 27.5795 85.8994C27.5688 87.5188 26.9194 89.0684 25.7729 90.2101C24.6264 91.3518 23.0758 91.993 21.4594 91.9939Z"
        fill="#E85240" />
    <path
        d="M47.4243 147.985C47.2745 147.752 47.1501 147.503 47.0534 147.242L44.0126 139.084C43.6586 138.131 43.6965 137.076 44.1177 136.151C44.5389 135.226 45.3092 134.506 46.2595 134.149L114.129 108.759C115.081 108.404 116.133 108.441 117.057 108.864C117.98 109.286 118.699 110.057 119.055 111.01L122.095 119.168C122.271 119.64 122.352 120.142 122.335 120.645C122.317 121.149 122.2 121.644 121.992 122.102C121.783 122.56 121.486 122.973 121.119 123.316C120.751 123.659 120.319 123.927 119.848 124.103L51.9788 149.494C51.1617 149.799 50.265 149.816 49.4369 149.542C48.6088 149.267 47.8988 148.718 47.4243 147.985Z"
        fill="#E85240" />
    <path
        d="M113.913 106.65L86.3141 117.677C85.4445 117.939 84.7089 118.526 84.2601 119.317C83.8112 120.108 83.6836 121.042 83.9037 121.925L87.1066 134.773C87.2331 135.281 87.4703 135.754 87.8012 136.158C88.132 136.563 88.5482 136.889 89.02 137.114C89.4917 137.338 90.0072 137.455 90.5293 137.455C91.0515 137.456 91.5673 137.341 92.0397 137.118L119.715 124.067C120.592 123.738 121.302 123.074 121.691 122.22C122.081 121.367 122.116 120.394 121.791 119.514L118.464 108.73C118.135 107.851 117.471 107.137 116.618 106.747C115.765 106.357 114.792 106.322 113.913 106.65Z"
        fill="#2F2E41" />
    <path
        d="M164.421 186.697C163.555 186.797 162.68 186.597 161.942 186.131C161.204 185.666 160.647 184.962 160.362 184.136L136.738 115.52C136.574 115.044 136.505 114.54 136.535 114.037C136.566 113.535 136.695 113.043 136.915 112.59C137.135 112.137 137.442 111.732 137.818 111.398C138.194 111.064 138.633 110.808 139.108 110.644L147.325 107.804C148.285 107.473 149.337 107.537 150.249 107.982C151.162 108.428 151.861 109.218 152.192 110.179L175.817 178.795C176.147 179.757 176.082 180.81 175.638 181.724C175.193 182.638 174.405 183.339 173.446 183.671L165.229 186.511C164.967 186.602 164.696 186.664 164.421 186.697Z"
        fill="#E85240" />
    <path
        d="M153.953 109.004L163.02 137.353C163.372 138.192 163.387 139.135 163.064 139.985C162.74 140.835 162.102 141.528 161.282 141.919L149.351 147.617C148.879 147.842 148.364 147.96 147.842 147.962C147.32 147.963 146.804 147.849 146.331 147.627C145.858 147.405 145.44 147.081 145.107 146.678C144.775 146.275 144.535 145.803 144.406 145.296L136.85 115.6C136.546 114.713 136.605 113.741 137.015 112.897C137.425 112.054 138.151 111.407 139.036 111.099L149.456 106.81C150.343 106.505 151.315 106.564 152.158 106.975C153.001 107.387 153.647 108.117 153.953 109.004Z"
        fill="#2F2E41" />
    <path
        d="M126.5 260.254H117.808C116.793 260.253 115.82 259.849 115.102 259.13C114.385 258.411 113.981 257.436 113.98 256.419V183.835C113.981 182.818 114.385 181.843 115.102 181.124C115.82 180.405 116.793 180.001 117.808 180H126.5C127.515 180.001 128.488 180.405 129.206 181.124C129.923 181.843 130.327 182.818 130.328 183.835V256.419C130.327 257.436 129.923 258.411 129.206 259.13C128.488 259.849 127.515 260.253 126.5 260.254Z"
        fill="#2F2E41" />
    <path
        d="M143.693 260.254H135C133.986 260.253 133.013 259.849 132.295 259.13C131.577 258.411 131.174 257.436 131.172 256.419V183.835C131.174 182.818 131.577 181.843 132.295 181.124C133.013 180.405 133.986 180.001 135 180H143.693C144.708 180.001 145.681 180.405 146.398 181.124C147.116 181.843 147.52 182.818 147.521 183.835V256.419C147.52 257.436 147.116 258.411 146.398 259.13C145.681 259.849 144.708 260.253 143.693 260.254Z"
        fill="#2F2E41" />
    <path
        d="M150.857 192.368H111.361C110.268 192.367 109.22 191.931 108.448 191.157C107.675 190.383 107.24 189.333 107.239 188.238V123.956C107.239 117.613 109.754 111.53 114.23 107.045C118.707 102.56 124.778 100.04 131.109 100.04C137.44 100.04 143.511 102.56 147.988 107.045C152.464 111.53 154.979 117.613 154.979 123.956V188.238C154.978 189.333 154.543 190.383 153.77 191.157C152.997 191.931 151.95 192.367 150.857 192.368Z"
        fill="#CCCCCC" />
    <path
        d="M156.802 208.093H136.778V94.7124L137.15 94.8141C142.789 96.3651 147.765 99.7263 151.315 104.383C154.864 109.039 156.792 114.733 156.802 120.592V208.093Z"
        fill="#2F2E41" />
    <path
        d="M123.812 208.093H103.788V120.592C103.798 114.733 105.725 109.039 109.275 104.383C112.825 99.7264 117.801 96.3651 123.44 94.8141L123.812 94.7124V208.093Z"
        fill="#2F2E41" />
    <path
        d="M130.81 86.7436C148.217 86.7436 162.329 72.6053 162.329 55.1648C162.329 37.7244 148.217 23.5861 130.81 23.5861C113.402 23.5861 99.2905 37.7244 99.2905 55.1648C99.2905 72.6053 113.402 86.7436 130.81 86.7436Z"
        fill="#E85240" />
    <path
        d="M166.444 47.8946C166.444 47.8946 168.211 -1.07925 145.243 14.852C145.243 14.852 131.992 -29.6965 99.6007 36.9787L90.1777 46.4194C90.1777 46.4194 132.581 40.519 172.039 58.8104L166.444 47.8946Z"
        fill="#2F2E41" />
    <path
        d="M131.291 70.8039C129.344 70.7497 126.92 70.682 125.054 69.3158C124.498 68.8923 124.041 68.3521 123.716 67.7332C123.39 67.1142 123.203 66.4314 123.169 65.7326C123.135 65.236 123.217 64.7382 123.407 64.2783C123.597 63.8184 123.89 63.4088 124.265 63.0814C125.24 62.256 126.663 62.0624 128.198 62.5141L126.608 50.8751L127.775 50.7149L129.644 64.3981L128.669 63.9501C127.54 63.4309 125.989 63.1667 125.025 63.9826C124.788 64.1959 124.604 64.461 124.486 64.7574C124.369 65.0537 124.321 65.3732 124.346 65.6911C124.375 66.2112 124.515 66.719 124.757 67.18C124.999 67.641 125.337 68.0444 125.749 68.3627C127.201 69.4258 129.133 69.563 131.323 69.6244L131.291 70.8039Z"
        fill="#2F2E41" />
    <path d="M120.837 51.8788H114.493V53.0589H120.837V51.8788Z" fill="#2F2E41" />
    <path d="M140.861 51.8788H134.517V53.0589H140.861V51.8788Z" fill="#2F2E41" />
    <path
        d="M60.5351 150.996C59.685 151.391 58.713 151.431 57.833 151.108C56.953 150.786 56.237 150.126 55.8426 149.274L35.5179 105.384C35.1236 104.532 35.0832 103.559 35.4055 102.677C35.7277 101.795 36.3863 101.078 37.2364 100.683C38.0864 100.288 39.0583 100.247 39.9383 100.57C40.8183 100.893 41.5342 101.552 41.9287 102.404L62.2534 146.294C62.6478 147.146 62.6883 148.12 62.3661 149.001C62.0439 149.883 61.3853 150.6 60.5351 150.996Z"
        fill="#3F3D56" />
    <path
        d="M39.6527 103.769C39.0279 103.769 38.4287 103.521 37.9869 103.078C37.5452 102.635 37.297 102.035 37.297 101.409V71.3446H7.85036C7.22558 71.3446 6.62639 71.096 6.1846 70.6534C5.74282 70.2107 5.49463 69.6104 5.49463 68.9845C5.49463 68.3585 5.74282 67.7582 6.1846 67.3155C6.62639 66.8729 7.22558 66.6243 7.85036 66.6243H39.6527C40.2775 66.6243 40.8767 66.8729 41.3185 67.3155C41.7602 67.7582 42.0084 68.3585 42.0084 68.9845V101.409C42.0084 102.035 41.7602 102.635 41.3185 103.078C40.8767 103.521 40.2775 103.769 39.6527 103.769Z"
        fill="#E85240" />
    <path
        d="M40.21 107.106C35.1383 109.463 29.4827 110.261 23.9584 109.398C18.434 108.535 13.2892 106.05 9.17437 102.258C5.05954 98.4658 2.15956 93.5361 0.841142 88.0924C-0.477271 82.6488 -0.154897 76.9357 1.7675 71.6756C3.68989 66.4156 7.12594 61.8448 11.6412 58.5412C16.1564 55.2377 21.548 53.3498 27.1342 53.1162C32.7204 52.8827 38.2502 54.3141 43.0244 57.2293C47.7987 60.1445 51.6028 64.4126 53.9559 69.494C57.1025 76.309 57.4224 84.0963 54.8455 91.1474C52.2685 98.1985 47.0051 103.938 40.21 107.106ZM19.3897 62.145C15.5859 63.9132 12.3908 66.7717 10.2085 70.3592C8.02621 73.9466 6.95476 78.1018 7.12957 82.2994C7.30438 86.4969 8.71761 90.5483 11.1906 93.9411C13.6636 97.3339 17.0852 99.9158 21.0229 101.36C24.9605 102.805 29.2372 103.047 33.3122 102.056C37.3872 101.066 41.0775 98.8867 43.9164 95.7947C46.7553 92.7027 48.6153 88.8368 49.2612 84.6857C49.9071 80.5347 49.3099 76.2849 47.5451 72.4739C45.1737 67.368 40.8775 63.413 35.5991 61.4766C30.3208 59.5402 24.4913 59.7806 19.3897 62.145Z"
        fill="#3F3D56" />
</svg>
    