<svg width="24" height="25" viewBox="0 0 24 25" fill="none" xmlns="http://www.w3.org/2000/svg">
    <path
        d="M19.4845 20.6538L13.223 14.3923C12.723 14.818 12.148 15.1475 11.498 15.3808C10.848 15.6141 10.1948 15.7308 9.53849 15.7308C7.93682 15.7308 6.58124 15.1764 5.47174 14.0675C4.36241 12.9587 3.80774 11.604 3.80774 10.0033C3.80774 8.40245 4.36216 7.04654 5.47099 5.93554C6.57982 4.8247 7.93457 4.26929 9.53524 4.26929C11.1361 4.26929 12.492 4.82395 13.603 5.93329C14.7138 7.04279 15.2692 8.39837 15.2692 10C15.2692 10.6949 15.1462 11.3673 14.9 12.0173C14.6538 12.6673 14.3307 13.223 13.9307 13.6845L20.1922 19.9463L19.4845 20.6538ZM9.53849 14.7308C10.8653 14.7308 11.9855 14.274 12.899 13.3605C13.8125 12.4472 14.2692 11.327 14.2692 10C14.2692 8.67304 13.8125 7.55287 12.899 6.63954C11.9855 5.72604 10.8653 5.26929 9.53849 5.26929C8.21149 5.26929 7.09132 5.72604 6.17799 6.63954C5.26449 7.55287 4.80774 8.67304 4.80774 10C4.80774 11.327 5.26449 12.4472 6.17799 13.3605C7.09132 14.274 8.21149 14.7308 9.53849 14.7308Z"
        fill="black" fill-opacity="0.9" />
</svg>
    