<svg width="60" height="60" viewBox="0 0 60 60" fill="none" xmlns="http://www.w3.org/2000/svg">
    <path
        d="M39.8943 30.995L30.0768 21.5238C28.9376 20.4379 27.9797 19.2288 27.203 17.8963C26.4268 16.5642 26.0386 15.1131 26.0386 13.5431C26.0386 11.5485 26.7082 9.83437 28.0474 8.40062C29.387 6.96687 31.0426 6.25 33.0143 6.25C34.4151 6.25 35.6907 6.63458 36.8411 7.40375C37.992 8.17292 39.0097 9.10729 39.8943 10.2069C40.7788 9.10729 41.7924 8.17292 42.9349 7.40375C44.0774 6.63458 45.357 6.25 46.7736 6.25C48.7453 6.25 50.4009 6.96687 51.7405 8.40062C53.0801 9.83437 53.7499 11.5485 53.7499 13.5431C53.7499 15.109 53.3543 16.5562 52.563 17.885C51.7718 19.2142 50.8132 20.4271 49.6874 21.5238L39.8943 30.995ZM39.8943 27.1056L47.5461 19.6119C48.4111 18.7744 49.1886 17.8594 49.8786 16.8669C50.5682 15.8748 50.913 14.7669 50.913 13.5431C50.913 12.3285 50.5207 11.2821 49.7361 10.4038C48.9511 9.52583 47.9636 9.08688 46.7736 9.08688C45.7895 9.08688 44.9009 9.37604 44.108 9.95438C43.3147 10.5327 42.6072 11.2194 41.9855 12.0144L39.8943 14.6344L37.7786 12.0144C37.1728 11.2194 36.4734 10.5327 35.6805 9.95438C34.8872 9.37604 33.9984 9.08688 33.0143 9.08688C31.8247 9.08688 30.8374 9.52583 30.0524 10.4038C29.2674 11.2821 28.8749 12.3285 28.8749 13.5431C28.8749 14.7669 29.2157 15.8748 29.8974 16.8669C30.5795 17.8594 31.3636 18.7771 32.2499 19.62L39.8943 27.1056ZM15.6249 47.3556L35.0768 53.125L50.4568 48.3219C50.4888 47.4085 50.2116 46.6946 49.6249 46.18C49.0382 45.6658 48.3524 45.4087 47.5674 45.4087H35.0068C34.2618 45.4087 33.5143 45.3606 32.7643 45.2644C32.0143 45.1681 31.2707 44.9919 30.5336 44.7356L24.7499 42.9713L25.7211 40.0725L31.3799 42.0725C31.9341 42.2871 32.5349 42.4279 33.1824 42.495C33.8299 42.5625 34.5511 42.5883 35.3461 42.5725H37.9086C37.9086 41.6492 37.6491 40.8806 37.1299 40.2669C36.6107 39.6531 35.9663 39.1956 35.1968 38.8944L21.428 33.7069C21.3638 33.6906 21.3157 33.6785 21.2836 33.6706C21.2516 33.6627 21.2115 33.6588 21.1636 33.6588H15.6249V47.3556ZM4.25488 53.75V30.8225H21.0724C21.2974 30.8225 21.5138 30.8448 21.7218 30.8894C21.9297 30.9344 22.1361 30.9873 22.3411 31.0481L36.1343 36.1975C37.4293 36.6683 38.5407 37.4535 39.4686 38.5531C40.3966 39.6523 40.8605 40.9921 40.8605 42.5725H47.5674C49.3903 42.5725 50.8763 43.215 52.0255 44.5C53.1751 45.7854 53.7499 47.3063 53.7499 49.0625V50.4469L35.3411 56.0863L15.6249 50.3556V53.75H4.25488ZM7.09113 50.9131H12.7261V33.6588H7.09113V50.9131Z"
        fill="#242424" />
</svg>
    