<svg width="11" height="11" viewBox="0 0 11 11" fill="none" xmlns="http://www.w3.org/2000/svg">
    <rect width="10.6667" height="10.6667" transform="translate(0 0.166687)" fill="white"
        fill-opacity="0.01" />
    <mask id="path-1-inside-1_1353_1251" fill="white">
        <path fill-rule="evenodd" clip-rule="evenodd"
            d="M1.42223 2.65559C1.42223 2.45923 1.58142 2.30004 1.77779 2.30004H8.8889C9.08524 2.30004 9.24445 2.45923 9.24445 2.65559V6.92226C9.24445 7.11863 9.08524 7.27782 8.8889 7.27782H1.77779C1.58142 7.27782 1.42223 7.11863 1.42223 6.92226V2.65559ZM1.42223 7.9282C1.00794 7.78178 0.711121 7.38669 0.711121 6.92226V2.65559C0.711121 2.06649 1.18868 1.58893 1.77779 1.58893H8.8889C9.47798 1.58893 9.95557 2.06649 9.95557 2.65559V6.92226C9.95557 7.38669 9.65875 7.78178 9.24445 7.9282V8.34448C9.24445 8.93357 8.76687 9.41115 8.17779 9.41115H2.4889C1.89979 9.41115 1.42223 8.93357 1.42223 8.34448V7.9282ZM8.53334 7.98893V8.34448C8.53334 8.54082 8.37413 8.70004 8.17779 8.70004H2.4889C2.29253 8.70004 2.13334 8.54082 2.13334 8.34448V7.98893H8.53334Z" />
    </mask>
    <path fill-rule="evenodd" clip-rule="evenodd"
        d="M1.42223 2.65559C1.42223 2.45923 1.58142 2.30004 1.77779 2.30004H8.8889C9.08524 2.30004 9.24445 2.45923 9.24445 2.65559V6.92226C9.24445 7.11863 9.08524 7.27782 8.8889 7.27782H1.77779C1.58142 7.27782 1.42223 7.11863 1.42223 6.92226V2.65559ZM1.42223 7.9282C1.00794 7.78178 0.711121 7.38669 0.711121 6.92226V2.65559C0.711121 2.06649 1.18868 1.58893 1.77779 1.58893H8.8889C9.47798 1.58893 9.95557 2.06649 9.95557 2.65559V6.92226C9.95557 7.38669 9.65875 7.78178 9.24445 7.9282V8.34448C9.24445 8.93357 8.76687 9.41115 8.17779 9.41115H2.4889C1.89979 9.41115 1.42223 8.93357 1.42223 8.34448V7.9282ZM8.53334 7.98893V8.34448C8.53334 8.54082 8.37413 8.70004 8.17779 8.70004H2.4889C2.29253 8.70004 2.13334 8.54082 2.13334 8.34448V7.98893H8.53334Z"
        fill="#1E1E1E" />
    <path
        d="M1.42223 7.9282H2.42223V7.221L1.75545 6.98535L1.42223 7.9282ZM9.24445 7.9282L8.91124 6.98535L8.24445 7.221V7.9282H9.24445ZM8.53334 7.98893H9.53334V6.98893H8.53334V7.98893ZM2.13334 7.98893V6.98893H1.13334V7.98893H2.13334ZM2.42223 2.65559C2.42223 3.01151 2.13371 3.30004 1.77779 3.30004V1.30004C1.02914 1.30004 0.422232 1.90694 0.422232 2.65559H2.42223ZM1.77779 3.30004H8.8889V1.30004H1.77779V3.30004ZM8.8889 3.30004C8.533 3.30004 8.24445 3.01157 8.24445 2.65559H10.2445C10.2445 1.90689 9.63747 1.30004 8.8889 1.30004V3.30004ZM8.24445 2.65559V6.92226H10.2445V2.65559H8.24445ZM8.24445 6.92226C8.24445 6.56629 8.533 6.27782 8.8889 6.27782V8.27782C9.63747 8.27782 10.2445 7.67096 10.2445 6.92226H8.24445ZM8.8889 6.27782H1.77779V8.27782H8.8889V6.27782ZM1.77779 6.27782C2.13371 6.27782 2.42223 6.56634 2.42223 6.92226H0.422232C0.422232 7.67091 1.02914 8.27782 1.77779 8.27782V6.27782ZM2.42223 6.92226V2.65559H0.422232V6.92226H2.42223ZM1.75545 6.98535C1.74391 6.98127 1.73191 6.97277 1.72307 6.96049C1.7154 6.94983 1.71112 6.93803 1.71112 6.92226H-0.288879C-0.288879 7.82367 0.287657 8.58784 1.08901 8.87105L1.75545 6.98535ZM1.71112 6.92226V2.65559H-0.288879V6.92226H1.71112ZM1.71112 2.65559C1.71112 2.61877 1.74097 2.58893 1.77779 2.58893V0.588928C0.636397 0.588928 -0.288879 1.5142 -0.288879 2.65559H1.71112ZM1.77779 2.58893H8.8889V0.588928H1.77779V2.58893ZM8.8889 2.58893C8.92571 2.58893 8.95557 2.61879 8.95557 2.65559H10.9556C10.9556 1.51419 10.0303 0.588928 8.8889 0.588928V2.58893ZM8.95557 2.65559V6.92226H10.9556V2.65559H8.95557ZM8.95557 6.92226C8.95557 6.93803 8.95128 6.94983 8.94361 6.96049C8.93478 6.97277 8.92277 6.98127 8.91124 6.98535L9.57767 8.87105C10.379 8.58784 10.9556 7.82367 10.9556 6.92226H8.95557ZM8.24445 7.9282V8.34448H10.2445V7.9282H8.24445ZM8.24445 8.34448C8.24445 8.38128 8.21459 8.41115 8.17779 8.41115V10.4112C9.31916 10.4112 10.2445 9.48585 10.2445 8.34448H8.24445ZM8.17779 8.41115H2.4889V10.4112H8.17779V8.41115ZM2.4889 8.41115C2.45209 8.41115 2.42223 8.3813 2.42223 8.34448H0.422232C0.422232 9.48584 1.34749 10.4112 2.4889 10.4112V8.41115ZM2.42223 8.34448V7.9282H0.422232V8.34448H2.42223ZM7.53334 7.98893V8.34448H9.53334V7.98893H7.53334ZM7.53334 8.34448C7.53334 7.98854 7.82184 7.70004 8.17779 7.70004V9.70004C8.92641 9.70004 9.53334 9.09311 9.53334 8.34448H7.53334ZM8.17779 7.70004H2.4889V9.70004H8.17779V7.70004ZM2.4889 7.70004C2.84487 7.70004 3.13334 7.98859 3.13334 8.34448H1.13334C1.13334 9.09305 1.7402 9.70004 2.4889 9.70004V7.70004ZM3.13334 8.34448V7.98893H1.13334V8.34448H3.13334ZM2.13334 8.98893H8.53334V6.98893H2.13334V8.98893Z"
        fill="#757575" mask="url(#path-1-inside-1_1353_1251)" />
</svg>
    