<svg width="24" height="25" viewBox="0 0 24 25" fill="none" xmlns="http://www.w3.org/2000/svg">
    <path
        d="M7.30775 21.6155C6.88592 21.6155 6.53042 21.4709 6.24125 21.1818C5.95225 20.8926 5.80775 20.5372 5.80775 20.1155C5.80775 19.6937 5.95225 19.3382 6.24125 19.049C6.53042 18.76 6.88592 18.6155 7.30775 18.6155C7.72958 18.6155 8.085 18.76 8.374 19.049C8.66317 19.3382 8.80775 19.6937 8.80775 20.1155C8.80775 20.5372 8.66317 20.8926 8.374 21.1818C8.085 21.4709 7.72958 21.6155 7.30775 21.6155ZM16.6923 21.6155C16.2704 21.6155 15.915 21.4709 15.626 21.1818C15.3368 20.8926 15.1923 20.5372 15.1923 20.1155C15.1923 19.6937 15.3368 19.3382 15.626 19.049C15.915 18.76 16.2704 18.6155 16.6923 18.6155C17.1141 18.6155 17.4696 18.76 17.7588 19.049C18.0478 19.3382 18.1923 19.6937 18.1923 20.1155C18.1923 20.5372 18.0478 20.8926 17.7588 21.1818C17.4696 21.4709 17.1141 21.6155 16.6923 21.6155ZM5.88075 6L8.55 11.6155H15.1845C15.3 11.6155 15.4026 11.5866 15.4923 11.5288C15.5821 11.4711 15.659 11.391 15.723 11.2885L18.3385 6.5385C18.4153 6.3975 18.4218 6.2725 18.3578 6.1635C18.2936 6.0545 18.1846 6 18.0308 6H5.88075ZM5.39225 5H18.4115C18.8462 5 19.1731 5.17725 19.3923 5.53175C19.6116 5.88625 19.6232 6.25133 19.427 6.627L16.5693 11.8345C16.4244 12.0782 16.2363 12.2692 16.0048 12.4078C15.7734 12.5463 15.5193 12.6155 15.2423 12.6155H8.1L6.8845 14.8463C6.782 15.0001 6.77883 15.1667 6.875 15.3463C6.97117 15.5258 7.11542 15.6155 7.30775 15.6155H18.1923V16.6155H7.30775C6.72442 16.6155 6.28917 16.3697 6.002 15.878C5.71483 15.3863 5.70775 14.8924 5.98075 14.3963L7.4845 11.7155L3.80775 4H2V3H4.44225L5.39225 5Z"
        fill="black" fill-opacity="0.9" />
</svg>
    