<svg width="60" height="60" viewBox="0 0 60 60" fill="none" xmlns="http://www.w3.org/2000/svg">
    <path
        d="M11.5869 18.2119V47.6444C11.5869 47.8685 11.659 48.0527 11.8031 48.1969C11.9473 48.341 12.1315 48.4131 12.3556 48.4131H47.6444C47.8685 48.4131 48.0527 48.341 48.1969 48.1969C48.341 48.0527 48.4131 47.8685 48.4131 47.6444V18.2119H38.75V37.6875L30 33.3125L21.25 37.6875V18.2119H11.5869ZM12.3556 51.25C11.3727 51.25 10.526 50.8948 9.81563 50.1844C9.10521 49.474 8.75 48.6273 8.75 47.6444V17.0575C8.75 16.6621 8.8125 16.2758 8.9375 15.8988C9.0625 15.5217 9.25 15.174 9.5 14.8556L13.1106 10.1538C13.4281 9.7275 13.841 9.38708 14.3494 9.1325C14.8581 8.8775 15.3971 8.75 15.9663 8.75H43.9469C44.5165 8.75 45.0596 8.8775 45.5762 9.1325C46.0925 9.38708 46.5094 9.7275 46.8269 10.1538L50.5 14.9038C50.75 15.2221 50.9375 15.5738 51.0625 15.9588C51.1875 16.3438 51.25 16.7342 51.25 17.13V47.6444C51.25 48.6273 50.8948 49.474 50.1844 50.1844C49.474 50.8948 48.6273 51.25 47.6444 51.25H12.3556ZM12.6012 15.375H47.3125L44.4775 11.8512C44.3971 11.7708 44.3048 11.7067 44.2006 11.6587C44.0965 11.6108 43.9883 11.5869 43.8763 11.5869H16.0287C15.9167 11.5869 15.8046 11.6108 15.6925 11.6587C15.5804 11.7067 15.4923 11.7708 15.4281 11.8512L12.6012 15.375ZM24.0869 18.2119V33.0912L30 30.1344L35.9131 33.0912V18.2119H24.0869Z"
        fill="#242424" />
</svg>
    