<svg width="60" height="60" viewBox="0 0 60 60" fill="none" xmlns="http://www.w3.org/2000/svg">
    <path
        d="M40.2669 53.75C36.4448 53.75 33.246 52.4583 30.6706 49.875C28.0952 47.2917 26.8075 44.089 26.8075 40.2669C26.8075 36.4448 28.0952 33.246 30.6706 30.6706C33.246 28.0952 36.4448 26.8075 40.2669 26.8075C44.089 26.8075 47.2917 28.0952 49.875 30.6706C52.4583 33.246 53.75 36.4448 53.75 40.2669C53.75 44.089 52.4583 47.2917 49.875 49.875C47.2917 52.4583 44.089 53.75 40.2669 53.75ZM40.2812 50.9131C43.2154 50.9131 45.721 49.874 47.7981 47.7956C49.8748 45.7173 50.9131 43.211 50.9131 40.2769C50.9131 37.3423 49.874 34.8365 47.7956 32.7594C45.7173 30.6827 43.211 29.6444 40.2769 29.6444C37.3423 29.6444 34.8365 30.6835 32.7594 32.7619C30.6827 34.8402 29.6444 37.3467 29.6444 40.2812C29.6444 43.2154 30.6835 45.721 32.7619 47.7981C34.8402 49.8748 37.3467 50.9131 40.2812 50.9131ZM9.85563 48.75C8.87521 48.75 8.02917 48.3942 7.3175 47.6825C6.60583 46.9708 6.25 46.1248 6.25 45.1444V25.8656C6.25 25.3881 6.29729 24.9546 6.39187 24.565C6.48646 24.1754 6.63 23.7756 6.8225 23.3656L12.6444 10.6488H10.7163C10.1554 10.6488 9.70917 10.4829 9.3775 10.1512C9.04583 9.81958 8.88 9.37333 8.88 8.8125V8.08688C8.88 7.52563 9.04583 7.07917 9.3775 6.7475C9.70917 6.41583 10.1544 6.25 10.7131 6.25H25.7337C26.2925 6.25 26.7377 6.41583 27.0694 6.7475C27.4015 7.07917 27.5675 7.52563 27.5675 8.08688V8.8125C27.5675 9.37333 27.4015 9.81958 27.0694 10.1512C26.7377 10.4829 26.2915 10.6488 25.7306 10.6488H23.8025L30.3556 25.6538C29.9998 25.8396 29.6192 26.08 29.2138 26.375C28.8083 26.67 28.4327 26.9729 28.0869 27.2837L20.5863 10.6488H15.8219L9.08687 25.2306V45.1444C9.08687 45.3685 9.15896 45.5527 9.30313 45.6969C9.44729 45.841 9.63146 45.9131 9.85563 45.9131H23.4713C23.58 46.394 23.7442 46.8877 23.9638 47.3944C24.1833 47.9006 24.4119 48.3525 24.6494 48.75H9.85563ZM40.2788 23.37C39.0413 23.2258 38.0212 22.7098 37.2188 21.8219C36.4158 20.9344 36.0144 19.8469 36.0144 18.5594C36.0144 17.2719 36.4158 16.1863 37.2188 15.3025C38.0212 14.4183 39.0413 13.9042 40.2788 13.76V23.37C40.4229 22.1258 40.939 21.1002 41.8269 20.2931C42.7148 19.4856 43.7965 19.0819 45.0719 19.0819C46.3477 19.0819 47.4296 19.4856 48.3175 20.2931C49.205 21.1002 49.7208 22.1258 49.865 23.37H40.2788Z"
        fill="#242424" />
</svg>
    