<svg width="27" height="39" viewBox="0 0 27 39" fill="none" xmlns="http://www.w3.org/2000/svg">
    <g clip-path="url(#clip0_1216_1392)">
        <path
            d="M0.770881 38.1835C0.70718 38.1835 0.642649 38.1686 0.582268 38.1371C0.382864 38.0327 0.305672 37.7866 0.410042 37.587L13.2472 13.0371C13.3342 12.8707 13.5232 12.7854 13.7056 12.83C13.888 12.8748 14.016 13.0381 14.016 13.2259V32.1074C14.016 32.3326 13.8334 32.515 13.6085 32.515C13.3833 32.515 13.2009 32.3326 13.2009 32.1074V14.8846L1.13234 37.9648C1.05951 38.1039 0.917581 38.1835 0.770881 38.1835Z"
            fill="#C68C0A" stroke="#C68C0A" stroke-width="0.726237" stroke-miterlimit="2"
            stroke-linejoin="round" />
        <path
            d="M26.4017 38.1835C26.2546 38.1835 26.1126 38.1037 26.0398 37.9642L13.2603 13.4413C13.1563 13.2417 13.2337 12.9956 13.4334 12.8914C13.6328 12.7875 13.8791 12.8648 13.983 13.0645L26.7625 37.5876C26.8667 37.7872 26.7891 38.0333 26.5897 38.1373C26.5293 38.1686 26.465 38.1835 26.4017 38.1835Z"
            fill="#C68C0A" stroke="#C68C0A" stroke-width="0.726237" stroke-miterlimit="2"
            stroke-linejoin="round" />
        <path
            d="M16.0835 28.3703C15.8586 28.3703 15.676 28.1879 15.676 27.9628V18.0615C15.676 17.8363 15.8586 17.6539 16.0835 17.6539C16.3087 17.6539 16.4911 17.8363 16.4911 18.0615V27.9628C16.4911 28.1879 16.3087 28.3703 16.0835 28.3703Z"
            fill="#C68C0A" stroke="#C68C0A" stroke-width="0.726237" stroke-miterlimit="2"
            stroke-linejoin="round" />
        <path
            d="M11.1329 28.3703C10.9077 28.3703 10.7253 28.1879 10.7253 27.9628V18.0615C10.7253 17.8363 10.9077 17.6539 11.1329 17.6539C11.358 17.6539 11.5404 17.8363 11.5404 18.0615V27.9628C11.5404 28.1879 11.358 28.3703 11.1329 28.3703Z"
            fill="#C68C0A" stroke="#C68C0A" stroke-width="0.726237" stroke-miterlimit="2"
            stroke-linejoin="round" />
        <path
            d="M1.17881 37.3685H26.0383V13.9411L13.6085 1.5117L1.17881 13.9411V37.3685ZM26.4458 38.1834H0.77129C0.546364 38.1834 0.36377 38.001 0.36377 37.776L0.36377 13.7724C0.36377 13.6643 0.406719 13.5606 0.483285 13.4842L13.3205 0.647066C13.4794 0.487916 13.7377 0.487916 13.8967 0.647066L26.7338 13.4842C26.8104 13.5606 26.8534 13.6643 26.8534 13.7724V37.776C26.8534 38.001 26.6708 38.1834 26.4458 38.1834Z"
            fill="#C68C0A" stroke="#C68C0A" stroke-width="0.726237" stroke-miterlimit="2"
            stroke-linejoin="round" />
    </g>
    <defs>
        <clipPath id="clip0_1216_1392">
            <rect width="27" height="38.1176" fill="white" transform="translate(0 0.441162)" />
        </clipPath>
    </defs>
</svg>
    