<svg width="213" height="44" viewBox="0 0 213 44" fill="none" xmlns="http://www.w3.org/2000/svg">
    <path fill-rule="evenodd" clip-rule="evenodd"
        d="M6.80155 4.95374C6.80155 4.95374 9.67586 6.74765 11.8956 7.39056C17.0205 8.87191 21.2173 7.64239 26.0348 8.00384C33.0926 8.5312 38.547 11.8391 39.4899 14.9188C41.0536 20.022 37.3687 23.6158 37.3687 23.6158C37.3687 23.6158 38.4043 21.1982 35.4314 18.1066C32.616 15.1795 27.8632 14.6047 23.5091 14.19C16.8661 13.5559 12.9562 10.0925 12.4884 9.81553C12.0206 9.53703 16.3277 14.3633 24.7226 15.3336C33.2073 16.3127 34.0973 19.5658 34.4532 21.9952C34.8122 24.4572 33.0043 26.5015 30.4669 27.5029C27.825 28.5442 26.7099 27.7606 26.7099 27.7606C26.7099 27.7606 28.4678 27.2318 28.8385 26.4481C30.333 23.2855 25.8582 23.5521 16.9455 18.2444C6.26169 11.8835 6.80155 4.95374 6.80155 4.95374Z"
        fill="#3BABD4" />
    <path fill-rule="evenodd" clip-rule="evenodd"
        d="M49.6767 8.66998C49.6767 8.66998 46.4244 9.80025 44.7842 11.6475C43.1441 13.4947 42.5645 14.9553 42.1159 17.6603C41.476 21.5222 38 23.8568 38 23.8568C38 23.8568 42.1879 19.4735 39.8255 14.2295C38.5575 11.4164 35.0507 9.75729 35.0507 9.75729C35.0507 9.75729 37.0704 7.33529 41.4407 6.8183C45.811 6.29982 49.6767 8.66998 49.6767 8.66998ZM43.5677 7.85672C43.3412 7.85672 43.1558 8.04188 43.1558 8.27149C43.1558 8.49962 43.3412 8.68479 43.5677 8.68479C43.7943 8.68479 43.9796 8.49962 43.9796 8.27149C43.9796 8.04188 43.7943 7.85672 43.5677 7.85672Z"
        fill="#3BABD4" />
    <path fill-rule="evenodd" clip-rule="evenodd"
        d="M41.596 20.5555C41.596 20.5555 40.3058 27.6105 34.4499 32.4126C29.3984 36.5539 17.5521 40.8399 7.92366 33.3315C2.44888 29.0635 3.67143 23.2707 6.46158 21.4721C9.5493 19.4806 14.7476 20.6912 18.7891 26.3651C21.527 30.2079 27.2993 30.7936 30.5025 29.9902C38.7728 27.9168 41.596 20.5555 41.596 20.5555Z"
        fill="#3BABD4" />
    <path
        d="M70.4122 29.3377C69.8294 30.4424 69.1094 31.3689 68.2524 32.1169C67.3953 32.8649 66.4582 33.2389 65.4355 33.2389C64.6698 33.2389 64.0985 33.0662 63.7271 32.7267C63.35 32.3872 63.1614 31.9614 63.1614 31.4551C63.1614 31.2307 63.1843 31.0179 63.2357 30.8165C63.2871 30.6151 63.3843 30.287 63.5214 29.8267L64.5841 26.2593C64.7956 25.5458 64.9041 24.9819 64.9041 24.5561C64.9041 24.3777 64.8756 24.2109 64.8127 24.0556C64.7499 23.8945 64.6584 23.7678 64.5327 23.6815C64.407 23.5894 64.2528 23.5492 64.0642 23.5492C63.3386 23.5492 62.5215 24.1303 61.6016 25.2984C60.6874 26.4607 60.0246 27.5367 59.6132 28.5207C58.8362 30.4482 58.3848 31.6393 58.2648 32.0881L58.0134 33.0432H54.6938L59.4647 17.3118C59.6761 16.7134 59.7846 16.3107 59.7846 16.1036C59.7846 15.7756 59.6532 15.5569 59.3847 15.4476C59.1219 15.3382 58.7448 15.2866 58.2648 15.2866H57.842L58.2648 13.9977C60.4932 13.9689 62.0587 13.8538 62.95 13.6582H63.8985L60.2703 25.5976C60.9103 24.7115 61.4702 23.9807 61.9444 23.4226C62.4187 22.8587 63.0415 22.3351 63.8071 21.8575C64.5727 21.3742 65.424 21.1325 66.3554 21.1325C67.0296 21.1325 67.5953 21.2993 68.0352 21.6446C68.4752 21.9841 68.6981 22.4214 68.6981 22.945C68.6981 23.3938 68.5266 24.1591 68.1781 25.2466L66.7839 29.8843C66.6296 30.3791 66.5497 30.7186 66.5497 30.9085C66.5497 31.0121 66.5726 31.1156 66.624 31.2192C66.6754 31.3228 66.7668 31.3746 66.8982 31.3746C67.4582 31.3746 68.1495 30.6956 68.978 29.3377H70.4122Z"
        fill="#3BABD4" />
    <path
        d="M84.5307 23.7849C84.5307 25.4133 83.9822 27.1799 82.8909 29.0844C81.7995 30.9832 80.394 32.7726 78.6799 34.4528C76.96 36.1387 75.1774 37.4966 73.3261 38.5381C71.4749 39.5738 69.8579 40.0974 68.4752 40.0974C67.841 40.0974 67.3038 39.9593 66.8582 39.6947C66.4125 39.43 66.184 39.0387 66.184 38.5381C66.184 38.1353 66.3497 37.8016 66.6754 37.5484C67.001 37.2895 67.3724 37.1572 67.7895 37.1572C68.1266 37.1572 68.4066 37.1917 68.6408 37.2492C68.8751 37.3125 69.1722 37.4161 69.5322 37.5657C70.315 37.8304 70.8978 37.957 71.2806 37.957C71.9091 37.957 72.4748 37.7671 72.9719 37.3758C73.469 36.9903 73.8746 36.5243 74.1946 35.9776C74.9545 34.6312 75.3374 32.7323 75.3374 30.2754C75.3374 29.677 75.3202 29.0498 75.2802 28.3881C75.246 27.7264 75.1888 27.0475 75.1145 26.3571C75.0402 25.6608 74.9316 25.0279 74.7945 24.4467C74.7202 24.1475 74.5889 23.8771 74.4117 23.6297C74.2289 23.388 74.0232 23.2671 73.7889 23.2671C73.0633 23.2671 72.6176 24.09 72.4519 25.7413H71.3034C71.5206 23.8656 72.0063 22.6285 72.7548 22.0301C73.509 21.4317 74.2346 21.1324 74.9316 21.1324C76.3372 21.1324 77.2971 21.8977 77.8114 23.4282C78.3313 24.9588 78.5884 26.7828 78.5884 28.9003C78.5884 30.6495 78.4913 32.0879 78.3085 33.21C79.9654 31.2651 80.8568 30.1891 80.9882 29.9934C81.4167 29.3605 81.7653 28.7391 82.0338 28.1349C82.3023 27.5308 82.4395 26.9324 82.4395 26.3455C82.4395 25.8852 82.2795 25.2523 81.9652 24.4467C81.6396 23.6296 81.4739 23.0369 81.4739 22.6629C81.4739 22.2141 81.5939 21.8459 81.8281 21.5582C82.0681 21.2705 82.3481 21.1324 82.6737 21.1324C82.9937 21.1324 83.2908 21.236 83.5765 21.4374C83.8564 21.6445 84.0908 21.9494 84.2679 22.3464C84.4393 22.7435 84.5307 23.2268 84.5307 23.7849Z"
        fill="#3BABD4" />
    <path
        d="M103.152 13.6582L98.1978 29.8267C97.9978 30.5459 97.895 31.0178 97.895 31.2307C97.895 31.5587 98.0492 31.7255 98.352 31.7255C98.6434 31.7255 98.9692 31.5472 99.3291 31.1962C99.6948 30.8452 100.032 30.3792 100.346 29.798H101.689C101.529 30.1893 101.243 30.6784 100.82 31.2595C100.403 31.8407 99.8776 32.3527 99.2491 32.79C98.6149 33.2331 97.895 33.4517 97.1008 33.4517C95.4895 33.4517 94.6839 32.5771 94.6839 30.8394C94.6839 30.7703 94.6896 30.7129 94.6896 30.6553C94.6953 30.5978 94.701 30.5345 94.701 30.4597C94.3468 30.9372 93.9011 31.409 93.3754 31.8693C92.844 32.3354 92.2555 32.7152 91.6099 33.0086C90.9643 33.3021 90.3072 33.4517 89.633 33.4517C88.6388 33.4517 87.8789 33.1295 87.3475 32.4908C86.8161 31.8464 86.5533 31.0351 86.5533 30.0512C86.5533 28.9924 86.759 27.9337 87.1761 26.875C87.5874 25.8162 88.1531 24.8553 88.8673 23.9922C89.5815 23.1234 90.4157 22.433 91.3642 21.9094C92.3127 21.3915 93.3012 21.1325 94.3239 21.1325C95.101 21.1325 95.6895 21.2706 96.078 21.5526C96.4722 21.8345 96.8094 22.1855 97.1008 22.6056L98.7463 17.1278C98.9406 16.6042 99.0377 16.2532 99.0377 16.0748C99.0377 15.8216 98.9577 15.6375 98.7977 15.5282C98.6434 15.4131 98.4378 15.344 98.1921 15.321C97.9464 15.298 97.5807 15.2866 97.1008 15.2866L97.4321 13.9977C98.3806 13.9747 99.1234 13.9574 99.6662 13.9401C100.203 13.9228 100.643 13.8941 100.986 13.8539C101.323 13.8193 101.723 13.7502 102.175 13.6582H103.152ZM96.3466 24.3202C96.3466 23.7103 96.1866 23.2097 95.8723 22.8184C95.5523 22.4214 95.141 22.2257 94.6268 22.2257C93.8211 22.2257 93.044 22.6343 92.307 23.4572C91.5699 24.2742 90.9757 25.2581 90.53 26.3973C90.0786 27.5424 89.8615 28.5551 89.8615 29.447C89.8615 30.0741 90.0101 30.5288 90.3186 30.8107C90.6271 31.0927 90.9871 31.2307 91.4099 31.2307C92.0327 31.2307 92.6384 31.0062 93.244 30.5517C93.8439 30.0971 94.381 29.4988 94.8667 28.7565C95.3238 28.0488 95.6838 27.2951 95.9466 26.5068C96.2094 25.7127 96.3466 24.9877 96.3466 24.3202Z"
        fill="#3BABD4" />
    <path
        d="M115.328 22.9737C115.328 23.5606 115.168 24.0842 114.842 24.5387C114.516 24.9933 114.105 25.2178 113.614 25.2178C113.196 25.2178 112.785 24.9703 112.385 24.4755C112.162 24.1821 111.945 24.0382 111.734 24.0382C111.482 24.0382 111.134 24.2741 110.7 24.7459C110.26 25.2235 109.814 25.8507 109.351 26.639C108.894 27.4215 108.437 28.3249 107.991 29.3433C107.546 30.356 107.163 31.3974 106.837 32.4677L106.666 33.0431H103.392L105.58 25.1602C105.814 24.4064 105.929 23.8771 105.929 23.5721C105.929 23.4628 105.894 23.3534 105.831 23.2441C105.763 23.1348 105.666 23.083 105.523 23.083C105.163 23.083 104.792 23.3362 104.42 23.8483C104.049 24.3604 103.769 24.8264 103.586 25.2464H102.3C102.843 24.1589 103.392 23.3189 103.957 22.7263C104.517 22.1336 105.06 21.7135 105.586 21.4833C106.111 21.2474 106.591 21.1324 107.014 21.1324C107.763 21.1324 108.243 21.3626 108.46 21.8344C108.677 22.3005 108.785 22.7607 108.785 23.2095C108.785 24.0266 108.528 25.3098 108.008 27.059C108.54 26.1384 108.974 25.4076 109.311 24.8552C109.648 24.3028 110.054 23.7275 110.522 23.1406C110.997 22.5479 111.494 22.0646 112.019 21.6905C112.545 21.3165 113.054 21.1324 113.556 21.1324C114.276 21.1324 114.751 21.3339 114.979 21.7424C115.213 22.1509 115.328 22.5594 115.328 22.9737Z"
        fill="#3BABD4" />
    <path
        d="M128.641 26.0751C128.641 27.013 128.452 27.9279 128.086 28.814C127.721 29.7059 127.189 30.4998 126.492 31.2018C125.789 31.9038 124.978 32.4561 124.047 32.8531C123.121 33.2502 122.098 33.4516 120.979 33.4516C119.893 33.4516 118.933 33.2388 118.105 32.813C117.282 32.3872 116.636 31.7829 116.179 31.0119C115.728 30.2409 115.499 29.3606 115.499 28.3825C115.499 27.1223 115.842 25.9369 116.528 24.8091C117.219 23.6871 118.156 22.7953 119.339 22.1279C120.527 21.4661 121.807 21.1324 123.184 21.1324C124.327 21.1324 125.315 21.3568 126.144 21.8114C126.966 22.2659 127.595 22.8759 128.012 23.6297C128.429 24.3892 128.641 25.2063 128.641 26.0751ZM125.332 25.1084C125.332 24.2338 125.149 23.5491 124.778 23.0543C124.412 22.5595 123.87 22.312 123.155 22.312C122.458 22.312 121.836 22.5709 121.287 23.0945C120.738 23.6238 120.281 24.2799 119.921 25.0739C119.556 25.8622 119.282 26.6562 119.099 27.4618C118.91 28.2616 118.819 28.9521 118.819 29.5332C118.819 30.3388 119.002 30.9947 119.361 31.5068C119.727 32.0132 120.236 32.272 120.899 32.272C121.63 32.272 122.281 32.0131 122.847 31.4953C123.418 30.9832 123.881 30.3272 124.252 29.5389C124.618 28.7448 124.892 27.9451 125.069 27.128C125.247 26.3167 125.332 25.6377 125.332 25.1084Z"
        fill="#3BABD4" />
    <path
        d="M158.352 24.8092L157.918 26.1039C157.312 26.1154 156.878 26.2766 156.609 26.5873C156.335 26.9037 156.066 27.4791 155.798 28.325L154.404 32.9051L152.741 31.8349C151.73 32.324 150.758 32.7038 149.833 32.98C148.907 33.2561 147.873 33.3942 146.719 33.3942C145.033 33.3942 143.633 33.049 142.525 32.3642C141.416 31.6738 140.599 30.7589 140.074 29.6254C139.554 28.4861 139.297 27.2662 139.297 25.9658C139.297 24.4755 139.599 22.9968 140.199 21.5238C140.805 20.0508 141.651 18.7216 142.725 17.5306C143.805 16.3337 145.056 15.3901 146.484 14.6997C147.913 14.0034 149.41 13.6582 150.97 13.6582C153.289 13.6582 154.929 14.4752 155.895 16.1036C156.352 15.6721 156.735 15.0046 157.038 14.107H158.352L156.912 20.6664H155.632C155.632 19.4006 155.449 18.3304 155.089 17.4501C154.387 15.7814 153.141 14.9528 151.347 14.9528C150.13 14.9528 149.021 15.3441 148.016 16.1382C147.01 16.9264 146.165 17.9448 145.473 19.1934C144.788 20.4362 144.256 21.7827 143.885 23.2327C143.513 24.6769 143.325 26.0176 143.325 27.2547C143.325 27.9106 143.416 28.5838 143.599 29.2801C143.782 29.9705 144.159 30.592 144.742 31.1328C145.325 31.6737 146.153 31.95 147.233 31.95C148.21 31.95 149.153 31.6968 150.056 31.1904C150.964 30.6841 151.575 29.8555 151.89 28.7047L152.032 28.1811C152.124 27.8531 152.17 27.5999 152.17 27.41C152.17 26.5412 151.553 26.1039 150.313 26.1039L150.718 24.8092H158.352Z"
        fill="#3BABD4" />
    <path
        d="M167.894 13.6582L163.008 29.7692C162.757 30.5633 162.631 31.0639 162.631 31.2595C162.631 31.4206 162.671 31.5472 162.746 31.6392C162.82 31.7313 162.917 31.7773 163.037 31.7773C163.277 31.7773 163.614 31.5586 164.043 31.1213C164.471 30.6783 164.808 30.1777 165.06 29.6138H166.374C165.917 30.4884 165.305 31.3458 164.545 32.1858C163.78 33.0317 162.831 33.4517 161.683 33.4517C160.986 33.4517 160.426 33.256 160.003 32.8648C159.58 32.4793 159.369 32.0075 159.369 31.4551C159.369 31.0235 159.512 30.3158 159.803 29.3377L163.374 17.6168C163.603 16.8515 163.723 16.3395 163.723 16.0863C163.723 15.7583 163.591 15.5454 163.323 15.4418C163.06 15.3382 162.563 15.2866 161.837 15.2866L162.174 13.9977H163.665C164.305 13.9977 164.894 13.9689 165.425 13.9228C165.951 13.8768 166.459 13.7905 166.945 13.6582H167.894Z"
        fill="#3BABD4" />
    <path
        d="M176.721 15.4706C176.721 15.977 176.544 16.4085 176.184 16.771C175.824 17.1278 175.407 17.3118 174.921 17.3118C174.401 17.3118 173.967 17.1278 173.619 16.771C173.27 16.4085 173.093 15.977 173.093 15.4706C173.093 14.9815 173.27 14.5615 173.619 14.199C173.967 13.8365 174.401 13.6582 174.921 13.6582C175.259 13.6582 175.561 13.7387 175.836 13.9056C176.11 14.0667 176.327 14.2854 176.487 14.5501C176.641 14.8147 176.721 15.1254 176.721 15.4706ZM175.687 29.6714C175.327 30.4885 174.761 31.3227 173.99 32.1743C173.219 33.0259 172.247 33.4517 171.088 33.4517C170.305 33.4517 169.722 33.256 169.328 32.8648C168.939 32.4793 168.745 32.019 168.745 31.4839C168.745 30.943 168.916 30.1893 169.259 29.2226L171.059 24.2627C171.236 23.8138 171.322 23.5088 171.322 23.3535C171.322 23.2499 171.282 23.1521 171.196 23.0715C171.116 22.9852 171.019 22.945 170.916 22.945C170.602 22.945 170.259 23.1924 169.882 23.6873C169.505 24.1821 169.219 24.6309 169.036 25.0222H167.808C168.356 23.7851 169.071 22.83 169.951 22.151C170.83 21.472 171.705 21.1325 172.579 21.1325C173.19 21.1325 173.704 21.2822 174.104 21.5871C174.51 21.8921 174.716 22.2948 174.716 22.8011C174.716 23.3362 174.613 23.8771 174.407 24.418L172.23 30.3043C172.082 30.7071 172.007 31.035 172.007 31.2882C172.007 31.3975 172.053 31.5069 172.139 31.6162C172.23 31.7255 172.322 31.7773 172.425 31.7773C172.704 31.7773 172.99 31.6277 173.293 31.3285C173.59 31.0293 173.962 30.477 174.407 29.6714H175.687Z"
        fill="#3BABD4" />
    <path
        d="M193.52 13.6582L188.566 29.8267C188.36 30.5459 188.257 31.0178 188.257 31.2307C188.257 31.5587 188.412 31.7255 188.72 31.7255C189.006 31.7255 189.331 31.5472 189.697 31.1962C190.057 30.8452 190.4 30.3792 190.714 29.798H192.051C191.891 30.1893 191.606 30.6784 191.188 31.2595C190.771 31.8407 190.246 32.3527 189.611 32.79C188.977 33.2331 188.263 33.4517 187.463 33.4517C185.852 33.4517 185.052 32.5771 185.052 30.8394C185.052 30.7703 185.052 30.7129 185.058 30.6553C185.063 30.5978 185.063 30.5345 185.063 30.4597C184.709 30.9372 184.269 31.409 183.738 31.8693C183.206 32.3354 182.618 32.7152 181.972 33.0086C181.327 33.3021 180.669 33.4517 180.001 33.4517C179.007 33.4517 178.241 33.1295 177.71 32.4908C177.184 31.8464 176.916 31.0351 176.916 30.0512C176.916 28.9924 177.127 27.9337 177.538 26.875C177.95 25.8162 178.515 24.8553 179.235 23.9922C179.95 23.1234 180.778 22.433 181.732 21.9094C182.681 21.3915 183.663 21.1325 184.686 21.1325C185.469 21.1325 186.052 21.2706 186.446 21.5526C186.835 21.8345 187.172 22.1855 187.463 22.6056L189.109 17.1278C189.303 16.6042 189.4 16.2532 189.4 16.0748C189.4 15.8216 189.32 15.6375 189.166 15.5282C189.006 15.4131 188.806 15.344 188.56 15.321C188.309 15.298 187.949 15.2866 187.463 15.2866L187.8 13.9977C188.749 13.9747 189.491 13.9574 190.029 13.9401C190.571 13.9228 191.011 13.8941 191.348 13.8539C191.685 13.8193 192.085 13.7502 192.543 13.6582H193.52ZM186.709 24.3202C186.709 23.7103 186.555 23.2097 186.235 22.8184C185.92 22.4214 185.503 22.2257 184.995 22.2257C184.183 22.2257 183.412 22.6343 182.669 23.4572C181.932 24.2742 181.338 25.2581 180.892 26.3973C180.447 27.5424 180.224 28.5551 180.224 29.447C180.224 30.0741 180.378 30.5288 180.687 30.8107C180.989 31.0927 181.355 31.2307 181.772 31.2307C182.395 31.2307 183.006 31.0062 183.606 30.5517C184.206 30.0971 184.749 29.4988 185.229 28.7565C185.686 28.0488 186.046 27.2951 186.315 26.5068C186.577 25.7127 186.709 24.9877 186.709 24.3202Z"
        fill="#3BABD4" />
    <path
        d="M205.696 23.4628C205.696 23.8483 205.581 24.2913 205.347 24.7919C205.113 25.2925 204.69 25.8218 204.073 26.3857C203.45 26.9438 202.57 27.4445 201.422 27.876C200.273 28.3076 198.828 28.601 197.091 28.7564L196.754 28.7852C196.679 29.1592 196.639 29.5101 196.639 29.8266C196.639 30.517 196.805 31.0177 197.136 31.3226C197.468 31.6276 197.948 31.7772 198.582 31.7772C199.976 31.7772 201.307 31.0177 202.587 29.5044H204.061C203.484 30.3906 202.61 31.2708 201.439 32.1454C200.267 33.0143 198.879 33.4516 197.268 33.4516C196.154 33.4516 195.199 33.1467 194.405 32.5425C193.605 31.9384 193.211 31.0522 193.211 29.8842C193.211 28.4514 193.605 27.059 194.394 25.701C195.188 24.3489 196.268 23.2499 197.633 22.404C198.999 21.5524 200.485 21.1324 202.096 21.1324C203.387 21.1324 204.313 21.351 204.867 21.7883C205.421 22.2314 205.696 22.7896 205.696 23.4628ZM202.753 23.4052C202.753 23.0945 202.644 22.8126 202.433 22.5536C202.216 22.3005 201.924 22.1682 201.553 22.1682C200.902 22.1682 200.302 22.3983 199.759 22.8529C199.216 23.3074 198.759 23.8426 198.388 24.4582C198.016 25.0797 197.708 25.7068 197.473 26.3455C197.233 26.9785 197.091 27.3754 197.034 27.525C198.919 27.2028 200.347 26.6678 201.307 25.9082C202.273 25.1487 202.753 24.3143 202.753 23.4052Z"
        fill="#3BABD4" />
</svg>
    